#!OML:ASF H:\Punching\Project 1\Capture day 1\Session 1\female.ASF
:FULLY-SPECIFIED
:DEGREES
1916
root 2.39287 14.6848 -1.00661 13.0076 -5.70822 -5.75008
lowerback 1.07288 3.59563 -2.60085
upperback -6.31372 4.62028 -1.36399
thorax -7.2819 2.39259 -0.322469
lowerneck -9.25495 3.02928 14.2678
upperneck 35.4146 -0.0956762 3.51802
head 13.8183 2.32217 -1.05634
rclavicle 4.73108e-014 -1.59028e-015
rhumerus 9.9516 17.8252 -81.9565
rradius 124.253
rwrist -33.7917
rhand -16.9268 -19.1512
rfingers 7.12502
rthumb 9.30593 -48.9258
lclavicle 4.73108e-014 -1.59028e-015
lhumerus 21.3871 -43.6148 77.0045
lradius 137.264
lwrist 17.152
lhand -23.6935 11.8149
lfingers 7.12502
lthumb 2.77334 41.7766
rfemur 11.0117 -1.51639 11.0929
rtibia 0
rfoot -13.6672 -24.1449
rtoes -14.5699
lfemur -45.4828 2.06196 -0.707355
ltibia 45.0569
lfoot -7.50179 15.0138
ltoes -2.33016
1917
root 2.39452 14.6882 -1.01383 12.9825 -6.39505 -5.96301
lowerback 1.46282 3.15502 -2.8129
upperback -6.27384 4.00854 -1.25743
thorax -7.47681 2.10462 -0.0694315
lowerneck -9.13685 3.59225 14.8245
upperneck 35.2606 0.718442 3.2026
head 13.7913 2.68732 -1.16139
rclavicle -2.68359e-015 0
rhumerus 8.09866 18.4432 -82.5675
rradius 126.95
rwrist -33.4532
rhand -16.2429 -18.6398
rfingers 7.12502
rthumb 9.96587 -48.3838
lclavicle -2.68359e-015 0
lhumerus 21.1142 -43.2533 77.0393
lradius 137.749
lwrist 16.76
lhand -23.763 11.478
lfingers 7.12502
lthumb 2.70625 41.4406
rfemur 10.8028 -0.741164 11.2272
rtibia 9.54166e-015
rfoot -13.4679 -24.2629
rtoes -14.7699
lfemur -45.155 2.05153 -0.332592
ltibia 45.1757
lfoot -7.63103 15.7012
ltoes -2.25416
1918
root 2.39723 14.6888 -1.01984 12.9974 -6.8572 -6.21368
lowerback 1.80674 2.68958 -2.92195
upperback -6.24405 3.37066 -1.13512
thorax -7.64289 1.79949 0.155023
lowerneck -8.96304 4.11248 15.3712
upperneck 35.0407 1.49708 2.86687
head 13.7281 3.02997 -1.27833
rclavicle -3.48122e-014 -1.59028e-015
rhumerus 6.40765 18.9529 -83.122
rradius 129.345
rwrist -33.2074
rhand -15.5465 -18.2776
rfingers 7.12502
rthumb 10.6376 -47.9883
lclavicle -3.48122e-014 -1.59028e-015
lhumerus 20.8472 -42.9352 77.0764
lradius 138.213
lwrist 16.3568
lhand -23.8649 11.2096
lfingers 7.12502
lthumb 2.60787 41.1734
rfemur 10.6316 -0.177359 11.4345
rtibia 3.18055e-015
rfoot -13.3193 -24.3685
rtoes -14.86
lfemur -45.0012 1.92519 0.0861121
ltibia 45.3519
lfoot -7.73993 16.3267
ltoes -2.14398
1919
root 2.40107 14.6866 -1.02461 13.0527 -7.11677 -6.48803
lowerback 2.1009 2.20558 -2.9469
upperback -6.21855 2.71552 -0.9966
thorax -7.77525 1.48227 0.359888
lowerneck -8.77198 4.59617 15.8951
upperneck 34.7805 2.24002 2.51781
head 13.6481 3.35157 -1.40155
rclavicle -1.60519e-014 -3.18055e-015
rhumerus 4.91954 19.3737 -83.5995
rradius 131.444
rwrist -33.0968
rhand -14.8724 -18.016
rfingers 7.12502
rthumb 11.2878 -47.6923
lclavicle -1.60519e-014 -3.18055e-015
lhumerus 20.609 -42.6241 77.105
lradius 138.623
lwrist 15.957
lhand -23.9945 11.0197
lfingers 7.12502
lthumb 2.4827 40.985
rfemur 10.4898 0.19334 11.6928
rtibia -1.27222e-014
rfoot -13.2164 -24.454
rtoes -14.8602
lfemur -45.0154 1.71843 0.526009
ltibia 45.585
lfoot -7.82472 16.8675
ltoes -2.05921
1920
root 2.40596 14.6817 -1.02784 13.1352 -7.21271 -6.7621
lowerback 2.34986 1.72255 -2.90849
upperback -6.20178 2.06771 -0.855074
thorax -7.8846 1.16559 0.538512
lowerneck -8.56572 5.03461 16.3824
upperneck 34.5012 2.92879 2.17667
head 13.5585 3.64648 -1.52282
rclavicle 1.36167e-014 6.36111e-015
rhumerus 3.64198 19.7238 -83.9887
rradius 133.251
rwrist -33.1345
rhand -14.2567 -17.7146
rfingers 7.12502
rthumb 11.8816 -47.3575
lclavicle 1.36167e-014 6.36111e-015
lhumerus 20.4086 -42.3398 77.1193
lradius 138.97
lwrist 15.6088
lhand -24.1714 10.9713
lfingers 7.12502
lthumb 2.31182 40.9385
rfemur 10.3775 0.405055 11.9676
rtibia -1.90833e-014
rfoot -13.1573 -24.5135
rtoes -14.7897
lfemur -45.1637 1.4653 0.954753
ltibia 45.8661
lfoot -7.89844 17.3152
ltoes -1.99479
1921
root 2.41175 14.6747 -1.02948 13.2362 -7.18504 -7.01379
lowerback 2.56228 1.25971 -2.83059
upperback -6.20191 1.45052 -0.722925
thorax -7.98816 0.861868 0.686981
lowerneck -8.35024 5.41792 16.8173
upperneck 34.2239 3.54186 1.86809
head 13.4659 3.90771 -1.63285
rclavicle -1.03368e-014 3.33958e-014
rhumerus 2.57957 20.0406 -84.2818
rradius 134.765
rwrist -33.2908
rhand -13.7684 -17.3827
rfingers 7.12502
rthumb 12.3524 -46.9978
lclavicle -1.03368e-014 3.33958e-014
lhumerus 20.2134 -42.077 77.1603
lradius 139.229
lwrist 15.3449
lhand -24.3529 11.0133
lfingers 7.12502
lthumb 2.13653 40.9824
rfemur 10.2886 0.492403 12.2286
rtibia 9.54166e-015
rfoot -13.1379 -24.5478
rtoes -14.6581
lfemur -45.4136 1.20362 1.34113
ltibia 46.1794
lfoot -7.96638 17.6612
ltoes -1.96681
1922
root 2.41839 14.6658 -1.02897 13.3467 -7.05935 -7.23546
lowerback 2.7388 0.829349 -2.72267
upperback -6.21994 0.879623 -0.604365
thorax -8.08977 0.579114 0.803489
lowerneck -8.1429 5.73928 17.1825
upperneck 33.9707 4.06148 1.61235
head 13.3791 4.12901 -1.72324
rclavicle 2.70844e-014 -4.13472e-014
rhumerus 1.74725 20.3727 -84.4712
rradius 135.989
rwrist -33.5143
rhand -13.4563 -17.0967
rfingers 7.12502
rthumb 12.6533 -46.6934
lclavicle 2.70844e-014 -4.13472e-014
lhumerus 20.0246 -41.8418 77.2393
lradius 139.395
lwrist 15.1839
lhand -24.5267 11.1343
lfingers 7.12502
lthumb 1.96872 41.105
rfemur 10.2264 0.47919 12.465
rtibia -3.18055e-014
rfoot -13.1575 -24.5627
rtoes -14.4784
lfemur -45.7347 0.960498 1.6704
ltibia 46.5099
lfoot -8.03052 17.8953
ltoes -1.99888
